<svg width="273" height="152" viewBox="0 0 273 152" fill="none" xmlns="http://www.w3.org/2000/svg">
<path d="M104.976 120.807H106.704V125.721C106.08 126.237 105.354 126.633 104.526 126.909C103.698 127.185 102.834 127.323 101.934 127.323C100.662 127.323 99.5164 127.047 98.4964 126.495C97.4764 125.931 96.6724 125.163 96.0844 124.191C95.5084 123.207 95.2204 122.103 95.2204 120.879C95.2204 119.655 95.5084 118.551 96.0844 117.567C96.6724 116.583 97.4764 115.815 98.4964 115.263C99.5284 114.711 100.686 114.435 101.97 114.435C102.978 114.435 103.89 114.603 104.706 114.939C105.534 115.263 106.236 115.743 106.812 116.379L105.696 117.495C104.688 116.523 103.47 116.037 102.042 116.037C101.082 116.037 100.218 116.247 99.4504 116.667C98.6944 117.075 98.1004 117.651 97.6684 118.395C97.2364 119.127 97.0204 119.955 97.0204 120.879C97.0204 121.791 97.2364 122.619 97.6684 123.363C98.1004 124.095 98.6944 124.671 99.4504 125.091C100.218 125.511 101.076 125.721 102.024 125.721C103.152 125.721 104.136 125.451 104.976 124.911V120.807ZM119.295 125.613V127.179H110.151V114.579H119.043V116.145H111.951V120.015H118.269V121.545H111.951V125.613H119.295ZM133.045 114.579V127.179H131.569L124.009 117.783V127.179H122.209V114.579H123.685L131.245 123.975V114.579H133.045ZM145.961 125.613V127.179H136.817V114.579H145.709V116.145H138.617V120.015H144.935V121.545H138.617V125.613H145.961ZM157.299 127.179L154.581 123.309C154.245 123.333 153.981 123.345 153.789 123.345H150.675V127.179H148.875V114.579H153.789C155.421 114.579 156.705 114.969 157.641 115.749C158.577 116.529 159.045 117.603 159.045 118.971C159.045 119.943 158.805 120.771 158.325 121.455C157.845 122.139 157.161 122.637 156.273 122.949L159.261 127.179H157.299ZM153.735 121.815C154.875 121.815 155.745 121.569 156.345 121.077C156.945 120.585 157.245 119.883 157.245 118.971C157.245 118.059 156.945 117.363 156.345 116.883C155.745 116.391 154.875 116.145 153.735 116.145H150.675V121.815H153.735ZM161.953 114.579H163.753V127.179H161.953V114.579ZM173.16 127.323C171.9 127.323 170.76 127.047 169.74 126.495C168.732 125.931 167.94 125.163 167.364 124.191C166.788 123.207 166.5 122.103 166.5 120.879C166.5 119.655 166.788 118.557 167.364 117.585C167.94 116.601 168.738 115.833 169.758 115.281C170.778 114.717 171.918 114.435 173.178 114.435C174.162 114.435 175.062 114.603 175.878 114.939C176.694 115.263 177.39 115.749 177.966 116.397L176.796 117.531C175.848 116.535 174.666 116.037 173.25 116.037C172.314 116.037 171.468 116.247 170.712 116.667C169.956 117.087 169.362 117.669 168.93 118.413C168.51 119.145 168.3 119.967 168.3 120.879C168.3 121.791 168.51 122.619 168.93 123.363C169.362 124.095 169.956 124.671 170.712 125.091C171.468 125.511 172.314 125.721 173.25 125.721C174.654 125.721 175.836 125.217 176.796 124.209L177.966 125.343C177.39 125.991 176.688 126.483 175.86 126.819C175.044 127.155 174.144 127.323 173.16 127.323ZM16.2662 147.323C15.0062 147.323 13.8662 147.047 12.8462 146.495C11.8382 145.931 11.0462 145.163 10.4702 144.191C9.89419 143.207 9.60619 142.103 9.60619 140.879C9.60619 139.655 9.89419 138.557 10.4702 137.585C11.0462 136.601 11.8442 135.833 12.8642 135.281C13.8842 134.717 15.0242 134.435 16.2842 134.435C17.2682 134.435 18.1682 134.603 18.9842 134.939C19.8002 135.263 20.4962 135.749 21.0722 136.397L19.9022 137.531C18.9542 136.535 17.7722 136.037 16.3562 136.037C15.4202 136.037 14.5742 136.247 13.8182 136.667C13.0622 137.087 12.4682 137.669 12.0362 138.413C11.6162 139.145 11.4062 139.967 11.4062 140.879C11.4062 141.791 11.6162 142.619 12.0362 143.363C12.4682 144.095 13.0622 144.671 13.8182 145.091C14.5742 145.511 15.4202 145.721 16.3562 145.721C17.7602 145.721 18.9422 145.217 19.9022 144.209L21.0722 145.343C20.4962 145.991 19.7942 146.483 18.9662 146.819C18.1502 147.155 17.2502 147.323 16.2662 147.323ZM32.064 147.179L29.346 143.309C29.01 143.333 28.746 143.345 28.554 143.345H25.44V147.179H23.64V134.579H28.554C30.186 134.579 31.47 134.969 32.406 135.749C33.342 136.529 33.81 137.603 33.81 138.971C33.81 139.943 33.57 140.771 33.09 141.455C32.61 142.139 31.926 142.637 31.038 142.949L34.026 147.179H32.064ZM28.5 141.815C29.64 141.815 30.51 141.569 31.11 141.077C31.71 140.585 32.01 139.883 32.01 138.971C32.01 138.059 31.71 137.363 31.11 136.883C30.51 136.391 29.64 136.145 28.5 136.145H25.44V141.815H28.5ZM42.4061 147.323C41.1341 147.323 39.9881 147.047 38.9681 146.495C37.9481 145.931 37.1441 145.157 36.5561 144.173C35.9801 143.189 35.6921 142.091 35.6921 140.879C35.6921 139.667 35.9801 138.569 36.5561 137.585C37.1441 136.601 37.9481 135.833 38.9681 135.281C39.9881 134.717 41.1341 134.435 42.4061 134.435C43.6661 134.435 44.8061 134.717 45.8261 135.281C46.8461 135.833 47.6441 136.601 48.2201 137.585C48.7961 138.557 49.0841 139.655 49.0841 140.879C49.0841 142.103 48.7961 143.207 48.2201 144.191C47.6441 145.163 46.8461 145.931 45.8261 146.495C44.8061 147.047 43.6661 147.323 42.4061 147.323ZM42.4061 145.721C43.3301 145.721 44.1581 145.511 44.8901 145.091C45.6341 144.671 46.2161 144.095 46.6361 143.363C47.0681 142.619 47.2841 141.791 47.2841 140.879C47.2841 139.967 47.0681 139.145 46.6361 138.413C46.2161 137.669 45.6341 137.087 44.8901 136.667C44.1581 136.247 43.3301 136.037 42.4061 136.037C41.4821 136.037 40.6421 136.247 39.8861 136.667C39.1421 137.087 38.5541 137.669 38.1221 138.413C37.7021 139.145 37.4921 139.967 37.4921 140.879C37.4921 141.791 37.7021 142.619 38.1221 143.363C38.5541 144.095 39.1421 144.671 39.8861 145.091C40.6421 145.511 41.4821 145.721 42.4061 145.721ZM69.233 134.579L65.021 147.179H63.131L59.693 137.117L56.255 147.179H54.329L50.117 134.579H51.971L55.373 144.821L58.919 134.579H60.575L64.049 144.875L67.523 134.579H69.233ZM71.4349 134.579H76.7449C78.0769 134.579 79.2589 134.843 80.2909 135.371C81.3229 135.899 82.1209 136.643 82.6849 137.603C83.2609 138.551 83.5489 139.643 83.5489 140.879C83.5489 142.115 83.2609 143.213 82.6849 144.173C82.1209 145.121 81.3229 145.859 80.2909 146.387C79.2589 146.915 78.0769 147.179 76.7449 147.179H71.4349V134.579ZM76.6369 145.613C77.6569 145.613 78.5509 145.415 79.3189 145.019C80.0989 144.623 80.6989 144.071 81.1189 143.363C81.5389 142.643 81.7489 141.815 81.7489 140.879C81.7489 139.943 81.5389 139.121 81.1189 138.413C80.6989 137.693 80.0989 137.135 79.3189 136.739C78.5509 136.343 77.6569 136.145 76.6369 136.145H73.2349V145.613H76.6369ZM90.05 147.395C89.054 147.395 88.088 147.263 87.152 146.999C86.228 146.723 85.484 146.369 84.92 145.937L85.91 143.741C86.45 144.137 87.092 144.455 87.836 144.695C88.58 144.935 89.324 145.055 90.068 145.055C90.896 145.055 91.508 144.935 91.904 144.695C92.3 144.443 92.498 144.113 92.498 143.705C92.498 143.405 92.378 143.159 92.138 142.967C91.91 142.763 91.61 142.601 91.238 142.481C90.878 142.361 90.386 142.229 89.762 142.085C88.802 141.857 88.016 141.629 87.404 141.401C86.792 141.173 86.264 140.807 85.82 140.303C85.388 139.799 85.172 139.127 85.172 138.287C85.172 137.555 85.37 136.895 85.766 136.307C86.162 135.707 86.756 135.233 87.548 134.885C88.352 134.537 89.33 134.363 90.482 134.363C91.286 134.363 92.072 134.459 92.84 134.651C93.608 134.843 94.28 135.119 94.856 135.479L93.956 137.693C92.792 137.033 91.628 136.703 90.464 136.703C89.648 136.703 89.042 136.835 88.646 137.099C88.262 137.363 88.07 137.711 88.07 138.143C88.07 138.575 88.292 138.899 88.736 139.115C89.192 139.319 89.882 139.523 90.806 139.727C91.766 139.955 92.552 140.183 93.164 140.411C93.776 140.639 94.298 140.999 94.73 141.491C95.174 141.983 95.396 142.649 95.396 143.489C95.396 144.209 95.192 144.869 94.784 145.469C94.388 146.057 93.788 146.525 92.984 146.873C92.18 147.221 91.202 147.395 90.05 147.395ZM103.491 147.395C102.183 147.395 101.001 147.113 99.9445 146.549C98.9005 145.985 98.0785 145.211 97.4785 144.227C96.8905 143.231 96.5965 142.115 96.5965 140.879C96.5965 139.643 96.8905 138.533 97.4785 137.549C98.0785 136.553 98.9005 135.773 99.9445 135.209C101.001 134.645 102.183 134.363 103.491 134.363C104.799 134.363 105.975 134.645 107.019 135.209C108.063 135.773 108.885 136.553 109.485 137.549C110.085 138.533 110.385 139.643 110.385 140.879C110.385 142.115 110.085 143.231 109.485 144.227C108.885 145.211 108.063 145.985 107.019 146.549C105.975 147.113 104.799 147.395 103.491 147.395ZM103.491 144.911C104.235 144.911 104.907 144.743 105.507 144.407C106.107 144.059 106.575 143.579 106.911 142.967C107.259 142.355 107.433 141.659 107.433 140.879C107.433 140.099 107.259 139.403 106.911 138.791C106.575 138.179 106.107 137.705 105.507 137.369C104.907 137.021 104.235 136.847 103.491 136.847C102.747 136.847 102.075 137.021 101.475 137.369C100.875 137.705 100.401 138.179 100.053 138.791C99.7165 139.403 99.5485 140.099 99.5485 140.879C99.5485 141.659 99.7165 142.355 100.053 142.967C100.401 143.579 100.875 144.059 101.475 144.407C102.075 144.743 102.747 144.911 103.491 144.911ZM118.174 147.395C116.374 147.395 114.97 146.897 113.962 145.901C112.966 144.905 112.468 143.483 112.468 141.635V134.579H115.384V141.527C115.384 143.783 116.32 144.911 118.192 144.911C119.104 144.911 119.8 144.641 120.28 144.101C120.76 143.549 121 142.691 121 141.527V134.579H123.88V141.635C123.88 143.483 123.376 144.905 122.368 145.901C121.372 146.897 119.974 147.395 118.174 147.395ZM134.79 147.179L132.36 143.669H132.216H129.678V147.179H126.762V134.579H132.216C133.332 134.579 134.298 134.765 135.114 135.137C135.942 135.509 136.578 136.037 137.022 136.721C137.466 137.405 137.688 138.215 137.688 139.151C137.688 140.087 137.46 140.897 137.004 141.581C136.56 142.253 135.924 142.769 135.096 143.129L137.922 147.179H134.79ZM134.736 139.151C134.736 138.443 134.508 137.903 134.052 137.531C133.596 137.147 132.93 136.955 132.054 136.955H129.678V141.347H132.054C132.93 141.347 133.596 141.155 134.052 140.771C134.508 140.387 134.736 139.847 134.736 139.151ZM146.028 147.395C144.744 147.395 143.58 147.119 142.536 146.567C141.504 146.003 140.688 145.229 140.088 144.245C139.5 143.249 139.206 142.127 139.206 140.879C139.206 139.631 139.5 138.515 140.088 137.531C140.688 136.535 141.504 135.761 142.536 135.209C143.58 134.645 144.75 134.363 146.046 134.363C147.138 134.363 148.122 134.555 148.998 134.939C149.886 135.323 150.63 135.875 151.23 136.595L149.358 138.323C148.506 137.339 147.45 136.847 146.19 136.847C145.41 136.847 144.714 137.021 144.102 137.369C143.49 137.705 143.01 138.179 142.662 138.791C142.326 139.403 142.158 140.099 142.158 140.879C142.158 141.659 142.326 142.355 142.662 142.967C143.01 143.579 143.49 144.059 144.102 144.407C144.714 144.743 145.41 144.911 146.19 144.911C147.45 144.911 148.506 144.413 149.358 143.417L151.23 145.145C150.63 145.877 149.886 146.435 148.998 146.819C148.11 147.203 147.12 147.395 146.028 147.395ZM153.199 134.579H156.115V147.179H153.199V134.579ZM170.661 134.579V147.179H168.267L161.985 139.529V147.179H159.105V134.579H161.517L167.781 142.229V134.579H170.661ZM182.156 140.681H184.82V145.793C184.136 146.309 183.344 146.705 182.444 146.981C181.544 147.257 180.638 147.395 179.726 147.395C178.418 147.395 177.242 147.119 176.198 146.567C175.154 146.003 174.332 145.229 173.732 144.245C173.144 143.249 172.85 142.127 172.85 140.879C172.85 139.631 173.144 138.515 173.732 137.531C174.332 136.535 175.16 135.761 176.216 135.209C177.272 134.645 178.46 134.363 179.78 134.363C180.884 134.363 181.886 134.549 182.786 134.921C183.686 135.293 184.442 135.833 185.054 136.541L183.182 138.269C182.282 137.321 181.196 136.847 179.924 136.847C179.12 136.847 178.406 137.015 177.782 137.351C177.158 137.687 176.672 138.161 176.324 138.773C175.976 139.385 175.802 140.087 175.802 140.879C175.802 141.659 175.976 142.355 176.324 142.967C176.672 143.579 177.152 144.059 177.764 144.407C178.388 144.743 179.096 144.911 179.888 144.911C180.728 144.911 181.484 144.731 182.156 144.371V140.681ZM196.695 147.323C195.747 147.323 194.829 147.179 193.941 146.891C193.065 146.591 192.375 146.207 191.871 145.739L192.537 144.335C193.017 144.767 193.629 145.121 194.373 145.397C195.129 145.661 195.903 145.793 196.695 145.793C197.739 145.793 198.519 145.619 199.035 145.271C199.551 144.911 199.809 144.437 199.809 143.849C199.809 143.417 199.665 143.069 199.377 142.805C199.101 142.529 198.753 142.319 198.333 142.175C197.925 142.031 197.343 141.869 196.587 141.689C195.639 141.461 194.871 141.233 194.283 141.005C193.707 140.777 193.209 140.429 192.789 139.961C192.381 139.481 192.177 138.839 192.177 138.035C192.177 137.363 192.351 136.757 192.699 136.217C193.059 135.677 193.599 135.245 194.319 134.921C195.039 134.597 195.933 134.435 197.001 134.435C197.745 134.435 198.477 134.531 199.197 134.723C199.917 134.915 200.535 135.191 201.051 135.551L200.457 136.991C199.929 136.655 199.365 136.403 198.765 136.235C198.165 136.055 197.577 135.965 197.001 135.965C195.981 135.965 195.213 136.151 194.697 136.523C194.193 136.895 193.941 137.375 193.941 137.963C193.941 138.395 194.085 138.749 194.373 139.025C194.661 139.289 195.015 139.499 195.435 139.655C195.867 139.799 196.449 139.955 197.181 140.123C198.129 140.351 198.891 140.579 199.467 140.807C200.043 141.035 200.535 141.383 200.943 141.851C201.363 142.319 201.573 142.949 201.573 143.741C201.573 144.401 201.393 145.007 201.033 145.559C200.673 146.099 200.127 146.531 199.395 146.855C198.663 147.167 197.763 147.323 196.695 147.323ZM208.763 142.823V147.179H206.981V142.787L201.977 134.579H203.903L207.935 141.221L211.985 134.579H213.767L208.763 142.823ZM219.001 147.323C218.053 147.323 217.135 147.179 216.247 146.891C215.371 146.591 214.681 146.207 214.177 145.739L214.843 144.335C215.323 144.767 215.935 145.121 216.679 145.397C217.435 145.661 218.209 145.793 219.001 145.793C220.045 145.793 220.825 145.619 221.341 145.271C221.857 144.911 222.115 144.437 222.115 143.849C222.115 143.417 221.971 143.069 221.683 142.805C221.407 142.529 221.059 142.319 220.639 142.175C220.231 142.031 219.649 141.869 218.893 141.689C217.945 141.461 217.177 141.233 216.589 141.005C216.013 140.777 215.515 140.429 215.095 139.961C214.687 139.481 214.483 138.839 214.483 138.035C214.483 137.363 214.657 136.757 215.005 136.217C215.365 135.677 215.905 135.245 216.625 134.921C217.345 134.597 218.239 134.435 219.307 134.435C220.051 134.435 220.783 134.531 221.503 134.723C222.223 134.915 222.841 135.191 223.357 135.551L222.763 136.991C222.235 136.655 221.671 136.403 221.071 136.235C220.471 136.055 219.883 135.965 219.307 135.965C218.287 135.965 217.519 136.151 217.003 136.523C216.499 136.895 216.247 137.375 216.247 137.963C216.247 138.395 216.391 138.749 216.679 139.025C216.967 139.289 217.321 139.499 217.741 139.655C218.173 139.799 218.755 139.955 219.487 140.123C220.435 140.351 221.197 140.579 221.773 140.807C222.349 141.035 222.841 141.383 223.249 141.851C223.669 142.319 223.879 142.949 223.879 143.741C223.879 144.401 223.699 145.007 223.339 145.559C222.979 146.099 222.433 146.531 221.701 146.855C220.969 147.167 220.069 147.323 219.001 147.323ZM228.835 136.145H224.515V134.579H234.937V136.145H230.617V147.179H228.835V136.145ZM246.042 145.613V147.179H236.898V134.579H245.79V136.145H238.698V140.015H245.016V141.545H238.698V145.613H246.042ZM260.638 147.179L260.62 137.999L256.066 145.649H255.238L250.684 138.053V147.179H248.956V134.579H250.432L255.688 143.435L260.872 134.579H262.348L262.366 147.179H260.638Z" fill="#444444"/>
<circle cx="133.887" cy="46.1887" r="29.8868" fill="#444444"/>
<circle cx="133.887" cy="46.1888" r="14.9434" fill="white"/>
<circle cx="163.774" cy="12.2264" r="12.2264" fill="#444444"/>
<rect x="109.611" y="80.4692" width="50.1357" height="14.7108" rx="7.35542" transform="rotate(-0.498424 109.611 80.4692)" fill="#444444"/>
<path d="M134.904 88.302L123.019 80.1511L146.113 80.1511L134.904 88.302Z" fill="white"/>
</svg>
